<?xml version="1.0" encoding="UTF-8"?>
<svg width="512" height="512" viewBox="0 0 512 512" fill="none" xmlns="http://www.w3.org/2000/svg">
  <defs>
    <!-- Purple to Indigo Gradient -->
    <linearGradient id="ctGradient" x1="0%" y1="0%" x2="100%" y2="100%">
      <stop offset="0%" style="stop-color:#667eea;stop-opacity:1" />
      <stop offset="100%" style="stop-color:#764ba2;stop-opacity:1" />
    </linearGradient>

    <!-- Lighter gradient for secondary segments -->
    <linearGradient id="ctGradientLight" x1="0%" y1="0%" x2="100%" y2="100%">
      <stop offset="0%" style="stop-color:#8b9ded;stop-opacity:1" />
      <stop offset="100%" style="stop-color:#9568c5;stop-opacity:1" />
    </linearGradient>
  </defs>

  <!-- Outer curved segment (top-right) -->
  <path d="M 380 132
           A 180 180 0 0 1 430 256
           L 380 256
           A 130 130 0 0 0 340 162
           Z"
        fill="url(#ctGradient)" />

  <!-- Middle curved segment (right) -->
  <path d="M 430 256
           A 180 180 0 0 1 380 380
           L 340 350
           A 130 130 0 0 0 380 256
           Z"
        fill="url(#ctGradientLight)" />

  <!-- Lower curved segment (bottom-right) -->
  <path d="M 380 380
           A 180 180 0 0 1 256 430
           L 256 380
           A 130 130 0 0 0 340 350
           Z"
        fill="url(#ctGradient)" />

  <!-- Inner core circle segment (creating the C shape) -->
  <circle cx="256" cy="256" r="85" fill="none" stroke="url(#ctGradient)" stroke-width="35"
          stroke-dasharray="180 400"
          stroke-dashoffset="90"
          transform="rotate(-45 256 256)" />

  <!-- Additional flowing segment (top-left to create dynamic flow) -->
  <path d="M 132 132
           A 180 180 0 0 0 82 256
           L 132 256
           A 130 130 0 0 1 172 162
           Z"
        fill="url(#ctGradientLight)"
        opacity="0.6" />
</svg>
